<?xml version="1.0" encoding="utf-8"?>
<!-- Generator: Adobe Illustrator 27.0.0, SVG Export Plug-In . SVG Version: 6.00 Build 0)  -->
<svg version="1.1" id="Layer_1" xmlns="http://www.w3.org/2000/svg" xmlns:xlink="http://www.w3.org/1999/xlink" x="0px" y="0px"
	 viewBox="0 0 4167 4167" style="enable-background:new 0 0 4167 4167;" xml:space="preserve">
<style type="text/css">
	.st0{fill:#001B48;}
</style>
<g transform="translate(0.000000,4167.000000) scale(0.100000,-0.100000)">
	<path class="st0" d="M16520,34143c-696-28-1350-276-1900-721c-128-103-10384-10352-10523-10515c-131-153-247-321-313-451
		c-32-61-85-160-119-221c-84-152-104-201-175-441c-87-288-106-363-124-489c-67-456-38-902,84-1295c28-91,67-217,86-280
		c20-63,60-160,88-215c228-432,264-491,429-700c55-68,1726-1746,5271-5291c4194-4194,5215-5210,5317-5291c473-376,983-593,1594-680
		c181-25,625-25,805,0c603,85,1120,304,1585,671c129,102,399,372,503,503c453,572,692,1258,692,1983c0,752-252,1453-734,2039
		c-44,53-1159,1177-2480,2498l-2401,2403l10610,3c10012,2,10616,3,10725,20c302,45,547,109,785,204c423,168,784,409,1106,740
		c498,511,799,1145,885,1863c19,162,22,518,5,670c-90,800-430,1483-1007,2022c-130,121-239,207-399,313c-414,276-824,431-1355,512
		c-109,17-655,18-10735,20l-10619,3l2395,2398c1318,1318,2429,2438,2470,2487c408,494,639,1024,731,1675c8,63,13,195,12,390
		c0,319-11,425-69,685c-265,1184-1177,2113-2355,2400C17123,34120,16784,34154,16520,34143z"/>
</g>
</svg>
